<svg viewBox="0 0 300 200" xmlns="http://www.w3.org/2000/svg">
  <defs>
    <linearGradient id="ccBg" x1="0%" y1="0%" x2="100%" y2="100%">
      <stop offset="0%" style="stop-color:#1e293b"/>
      <stop offset="100%" style="stop-color:#0f172a"/>
    </linearGradient>
  </defs>

  <!-- Background -->
  <rect fill="url(#ccBg)" width="300" height="200" rx="8"/>

  <!-- Header -->
  <rect x="90" y="8" width="120" height="22" fill="#0ea5e9" opacity="0.2" rx="11"/>
  <text x="150" y="23" fill="#38bdf8" font-size="10" text-anchor="middle" font-family="sans-serif" font-weight="bold">🩺 Chest Pain Approach</text>

  <!-- Flowchart -->
  <!-- Start -->
  <rect x="110" y="38" width="80" height="24" fill="#334155" rx="4" stroke="#475569" stroke-width="1"/>
  <text x="150" y="53" fill="#e2e8f0" font-size="8" text-anchor="middle" font-family="sans-serif">Chest Pain</text>

  <!-- Arrow -->
  <line x1="150" y1="62" x2="150" y2="72" stroke="#475569" stroke-width="2"/>
  <polygon points="146,70 150,78 154,70" fill="#475569"/>

  <!-- Decision -->
  <rect x="100" y="78" width="100" height="24" fill="#ef4444" opacity="0.2" rx="4"/>
  <text x="150" y="93" fill="#f87171" font-size="8" text-anchor="middle" font-family="sans-serif">Unstable? → Resuscitate</text>

  <!-- Arrow -->
  <line x1="150" y1="102" x2="150" y2="112" stroke="#475569" stroke-width="2"/>
  <polygon points="146,110 150,118 154,110" fill="#475569"/>

  <!-- History/Exam -->
  <rect x="100" y="118" width="100" height="24" fill="#334155" rx="4"/>
  <text x="150" y="133" fill="#94a3b8" font-size="8" text-anchor="middle" font-family="sans-serif">History + Exam</text>

  <!-- Branches -->
  <line x1="150" y1="142" x2="150" y2="148" stroke="#475569" stroke-width="2"/>
  <line x1="60" y1="148" x2="240" y2="148" stroke="#475569" stroke-width="2"/>
  <line x1="60" y1="148" x2="60" y2="155" stroke="#475569" stroke-width="2"/>
  <line x1="150" y1="148" x2="150" y2="155" stroke="#475569" stroke-width="2"/>
  <line x1="240" y1="148" x2="240" y2="155" stroke="#475569" stroke-width="2"/>

  <!-- Differential boxes -->
  <rect x="20" y="158" width="80" height="30" fill="#ef4444" opacity="0.2" rx="4"/>
  <text x="60" y="170" fill="#f87171" font-size="7" text-anchor="middle" font-family="sans-serif" font-weight="bold">⚠️ Must-Not-Miss</text>
  <text x="60" y="182" fill="#fca5a5" font-size="6" text-anchor="middle" font-family="sans-serif">ACS, PE, Dissection</text>

  <rect x="110" y="158" width="80" height="30" fill="#22c55e" opacity="0.2" rx="4"/>
  <text x="150" y="170" fill="#4ade80" font-size="7" text-anchor="middle" font-family="sans-serif" font-weight="bold">✓ Common</text>
  <text x="150" y="182" fill="#86efac" font-size="6" text-anchor="middle" font-family="sans-serif">GERD, MSK, Anxiety</text>

  <rect x="200" y="158" width="80" height="30" fill="#fbbf24" opacity="0.2" rx="4"/>
  <text x="240" y="170" fill="#fcd34d" font-size="7" text-anchor="middle" font-family="sans-serif" font-weight="bold">? Less Likely</text>
  <text x="240" y="182" fill="#fde68a" font-size="6" text-anchor="middle" font-family="sans-serif">Pericarditis, Esoph</text>
</svg>
