<svg viewBox="0 0 300 200" xmlns="http://www.w3.org/2000/svg">
  <defs>
    <linearGradient id="mannBg" x1="0%" y1="0%" x2="100%" y2="100%">
      <stop offset="0%" style="stop-color:#0f172a"/>
      <stop offset="100%" style="stop-color:#1e293b"/>
    </linearGradient>
  </defs>

  <!-- Background -->
  <rect fill="url(#mannBg)" width="300" height="200" rx="8"/>

  <!-- Title -->
  <text x="150" y="18" fill="#22d3ee" font-size="10" text-anchor="middle" font-family="sans-serif" font-weight="bold">Physical Exam Simulator</text>

  <!-- Body silhouette -->
  <g transform="translate(100, 25)">
    <!-- Head -->
    <circle cx="50" cy="15" r="14" fill="#334155" stroke="#475569" stroke-width="1"/>
    <circle cx="50" cy="15" r="14" fill="#3b82f6" opacity="0.3" class="hover-zone"/>

    <!-- Neck -->
    <rect x="44" y="28" width="12" height="10" fill="#334155"/>

    <!-- Torso -->
    <rect x="25" y="38" width="50" height="55" rx="8" fill="#334155" stroke="#475569" stroke-width="1"/>
    <!-- Chest highlight -->
    <rect x="30" y="43" width="40" height="20" rx="4" fill="#ef4444" opacity="0.3"/>

    <!-- Arms -->
    <rect x="5" y="40" width="18" height="45" rx="6" fill="#334155" stroke="#475569" stroke-width="1"/>
    <rect x="77" y="40" width="18" height="45" rx="6" fill="#334155" stroke="#475569" stroke-width="1"/>

    <!-- Abdomen highlight -->
    <rect x="30" y="68" width="40" height="22" rx="4" fill="#22c55e" opacity="0.3"/>

    <!-- Legs -->
    <rect x="28" y="95" width="20" height="55" rx="6" fill="#334155" stroke="#475569" stroke-width="1"/>
    <rect x="52" y="95" width="20" height="55" rx="6" fill="#334155" stroke="#475569" stroke-width="1"/>
  </g>

  <!-- Info panels -->
  <rect x="15" y="50" width="70" height="45" fill="#ef4444" opacity="0.2" rx="4"/>
  <text x="20" y="65" fill="#f87171" font-size="7" font-family="sans-serif" font-weight="bold">๐ซ Chest</text>
  <text x="20" y="76" fill="#fca5a5" font-size="6" font-family="sans-serif">โข Crackles bilat</text>
  <text x="20" y="86" fill="#fca5a5" font-size="6" font-family="sans-serif">โข S3 gallop</text>

  <rect x="215" y="50" width="70" height="45" fill="#22c55e" opacity="0.2" rx="4"/>
  <text x="220" y="65" fill="#4ade80" font-size="7" font-family="sans-serif" font-weight="bold">๐ฉบ Abdomen</text>
  <text x="220" y="76" fill="#86efac" font-size="6" font-family="sans-serif">โข Soft, NT/ND</text>
  <text x="220" y="86" fill="#86efac" font-size="6" font-family="sans-serif">โข No masses</text>

  <!-- Legend -->
  <g transform="translate(20, 170)">
    <circle cx="5" cy="5" r="4" fill="#3b82f6" opacity="0.5"/>
    <text x="12" y="8" fill="#64748b" font-size="6" font-family="sans-serif">Click to examine</text>
    <circle cx="85" cy="5" r="4" fill="#ef4444" opacity="0.5"/>
    <text x="92" y="8" fill="#64748b" font-size="6" font-family="sans-serif">Abnormal</text>
    <circle cx="145" cy="5" r="4" fill="#22c55e" opacity="0.5"/>
    <text x="152" y="8" fill="#64748b" font-size="6" font-family="sans-serif">Normal</text>
  </g>
</svg>
